<svg id="Layer_1" data-name="Layer 1" xmlns="http://www.w3.org/2000/svg" xmlns:xlink="http://www.w3.org/1999/xlink" viewBox="0 0 353.27 344.59"><defs><style>.cls-1,.cls-2{fill:#1d1d1b;}.cls-1{stroke:#d01e17;stroke-miterlimit:10;}.cls-2{font-size:12px;font-family:MyriadPro-Regular, Myriad Pro;}.cls-3{letter-spacing:0.02em;}.cls-4{letter-spacing:-0.01em;}.cls-5{letter-spacing:0.01em;}.cls-6{letter-spacing:0.01em;}.cls-7{letter-spacing:0em;}.cls-8{letter-spacing:-0.02em;}</style></defs><image width="375" height="812" transform="translate(109.7 39) scale(0.38)" xlink:href="Wireframe%20filter%20%E2%80%93%202.png"/><line class="cls-1" x1="170.9" y1="48.32" x2="161.41" y2="21.3"/><text class="cls-2" transform="translate(140.48 10.04)">bg<tspan class="cls-3" x="13.54" y="0">-</tspan><tspan class="cls-4" x="17.44" y="0">c</tspan><tspan x="22.74" y="0">olo</tspan><tspan class="cls-5" x="38.75" y="0">r</tspan><tspan x="42.78" y="0">:#2F323D</tspan></text><line class="cls-1" x1="109.7" y1="116.61" x2="79.75" y2="92.45"/><line class="cls-1" x1="113.57" y1="173.34" x2="76.98" y2="175.89"/><text class="cls-2" transform="translate(0 84.69)"><tspan class="cls-4">c</tspan><tspan x="5.3" y="0">olo</tspan><tspan class="cls-6" x="21.31" y="0">r</tspan><tspan class="cls-7" x="25.34" y="0">:#ffffff</tspan></text><text class="cls-2" transform="translate(21.38 178.89)">bg:#ffffff</text><line class="cls-1" x1="267.17" y1="126.11" x2="199.19" y2="129.35"/><text class="cls-2" transform="translate(259.09 119.14)"><tspan class="cls-4">c</tspan><tspan x="5.3" y="0">olo</tspan><tspan class="cls-6" x="21.31" y="0">r</tspan><tspan class="cls-7" x="25.34" y="0">:#505568</tspan></text><line class="cls-1" x1="117.09" y1="250.92" x2="73.8" y2="250.14"/><text class="cls-2" transform="translate(10.42 244.03)"><tspan class="cls-4">c</tspan><tspan x="5.3" y="0">olo</tspan><tspan class="cls-6" x="21.31" y="0">r</tspan><tspan class="cls-7" x="25.34" y="0">:#FF</tspan><tspan class="cls-8" x="45.48" y="0">C</tspan><tspan x="52.19" y="0">C6E</tspan></text></svg>