<?xml version="1.0" encoding="utf-8"?>
<!-- Generator: Adobe Illustrator 25.2.0, SVG Export Plug-In . SVG Version: 6.00 Build 0)  -->
<svg version="1.1" id="Layer_1" xmlns="http://www.w3.org/2000/svg" xmlns:xlink="http://www.w3.org/1999/xlink" x="0px" y="0px"
	 viewBox="0 0 595.3 841.9" style="enable-background:new 0 0 595.3 841.9;" xml:space="preserve">
<style type="text/css">
	.st0{fill:none;stroke:#000000;stroke-miterlimit:10;}
	.st1{fill:none;}
	.st2{font-family:'MyriadPro-Regular';}
	.st3{font-size:12px;}
</style>
<image style="overflow:visible;" width="375" height="812" xlink:href="Wireframe filter.png"  transform="matrix(0.3732 0 0 0.3732 235.7324 150.986)">
</image>
<line class="st0" x1="251.1" y1="154.6" x2="241.6" y2="127.6"/>
<line class="st0" x1="328.3" y1="179.6" x2="352.4" y2="146.6"/>
<line class="st0" x1="238.8" y1="187.2" x2="209.5" y2="182.4"/>
<line class="st0" x1="235.3" y1="357.9" x2="206.1" y2="353.1"/>
<rect x="220.7" y="107.8" class="st1" width="29.7" height="11.4"/>
<text transform="matrix(1 0 0 1 220.7017 116.3394)" class="st2 st3">H2</text>
<rect x="356" y="135.4" class="st1" width="29.7" height="11.4"/>
<text transform="matrix(1 0 0 1 356.0371 143.9369)" class="st2 st3">Form</text>
<rect x="177.3" y="173.9" class="st1" width="29.7" height="11.4"/>
<text transform="matrix(1 0 0 1 177.2837 182.4077)" class="st2 st3">H3</text>
<line class="st0" x1="355" y1="245.1" x2="325.7" y2="240.3"/>
<rect x="363.3" y="211.1" class="st1" width="29.7" height="11.4"/>
<text transform="matrix(1 0 0 1 363.3102 219.6288)" class="st2 st3">H3</text>
<rect x="361.1" y="239.8" class="st1" width="40.3" height="11.4"/>
<text transform="matrix(1 0 0 1 361.0731 248.3343)" class="st2 st3">Select</text>
<line class="st0" x1="355.6" y1="293.2" x2="326.4" y2="288.4"/>
<rect x="361.7" y="288" class="st1" width="40.3" height="11.4"/>
<text transform="matrix(1 0 0 1 361.7373 296.4967)" class="st2 st3">Range</text>
<line class="st0" x1="348.4" y1="365.9" x2="319.1" y2="361.1"/>
<rect x="354.5" y="360.6" class="st1" width="40.3" height="11.4"/>
<text transform="matrix(1 0 0 1 354.4643 369.1562)" class="st2 st3">p</text>
<rect x="369.5" y="254.2" class="st1" width="47" height="16.4"/>
<text transform="matrix(1 0 0 1 369.4959 262.756)" class="st2 st3">+ Option</text>
<rect x="173" y="344.4" class="st1" width="29.7" height="11.4"/>
<text transform="matrix(1 0 0 1 173.0153 352.9194)" class="st2 st3">radio</text>
<line class="st0" x1="238.1" y1="405.1" x2="208.9" y2="400.3"/>
<rect x="175.8" y="391.7" class="st1" width="29.7" height="11.4"/>
<text transform="matrix(1 0 0 1 175.8108 400.1853)" class="st2 st3">radio</text>
</svg>
